<?xml version="1.0" encoding="UTF-8"?>
<svg id="Layer_1" xmlns="http://www.w3.org/2000/svg" version="1.1" viewBox="0 0 33 5">
  <path d="M5.59,1.56l.59,1.95.59-1.95h.69l.59,1.95.59-1.95h.68l-.93,3.06h-.69l-.59-1.94-.59,1.94h-.69l-.92-3.06h.69ZM12.05,4.31c.35-.28.48-.67.48-.67h-.78c-.15.18-.35.3-.58.33-.45.06-.86-.21-.98-.62h2.42s.05-.24,0-.53v-.04c-.16-.77-.85-1.32-1.65-1.28-.8.04-1.45.69-1.5,1.5-.05.95.74,1.74,1.69,1.67.27-.02.6-.11.91-.36ZM10.2,2.78c.13-.35.47-.59.85-.59s.72.24.85.59h-1.69ZM16.03,2.86c0-.1-.01-.19-.03-.27-.13-.61-.67-1.08-1.33-1.09-.06,0-.13,0-.19,0-.24.03-.46.12-.65.26-.02.02-.05.04-.07.06v-.27h-.68v3.06h.68s0-1.65,0-1.65c0-.43.36-.77.79-.77s.78.34.79.77h0v1.65h.68v-1.69s0-.05,0-.07ZM4.53,2.48C4.53,1.29,3.57.33,2.39.33S.25,1.29.25,2.48s.96,2.14,2.14,2.14c.28,0,.55-.06.8-.15l-.36-.62c-.14.04-.29.07-.44.07-.79,0-1.43-.64-1.43-1.44s.64-1.44,1.43-1.44,1.43.64,1.43,1.44c0,.32-.1.61-.28.85l-.14-.24s-.05-.05-.09-.05h-.36s-.07.02-.09.05l-.09.16s-.02.07,0,.1l.12.21.12.21.35.61.14.25h.77s-.37-.65-.37-.65c.38-.39.61-.91.61-1.5h0ZM21.53.33v4.3h.68V.33h-.68ZM28.46,1.56v1.65c0,.4-.26.81-.75.81-.43,0-.72-.31-.72-.76v-1.69h-.68v1.71c0,1.04.67,1.41,1.31,1.41.34,0,.65-.14.88-.39v.33h.65V1.56h-.68ZM25.84,3.09c0,.88-.71,1.59-1.59,1.59s-1.59-.71-1.59-1.59.71-1.59,1.59-1.59,1.59.71,1.59,1.59ZM25.15,3.09c0-.49-.4-.9-.9-.9s-.9.4-.9.9.4.9.9.9.9-.4.9-.9ZM32.75.33v4.28h-.66v-.22c-.26.18-.56.28-.9.28-.88,0-1.59-.71-1.59-1.59s.71-1.59,1.59-1.59c.33,0,.64.1.9.28V.33h.66ZM32.09,3.09c0-.49-.4-.9-.9-.9s-.9.4-.9.9.4.9.9.9.9-.4.9-.9ZM20.38,3.2c-.23.42-.67.71-1.16.71-.74,0-1.35-.64-1.35-1.43s.6-1.43,1.35-1.43c.52,0,.97.31,1.2.77l.65-.28c-.33-.72-1.03-1.21-1.84-1.21-1.13,0-2.05.97-2.05,2.15s.92,2.15,2.05,2.15c.78,0,1.46-.46,1.81-1.14l-.65-.29h0Z"/>
</svg>